# xmcd
#
# Track frame offsets: 
#        150
#        15491
#        35773
#
# Disc length: 755 seconds
#
# Revision: 0
# Processed by: cddbd v1.5.2PL0 Copyright (c) Steve Scherf et al.
# Submitted via: ExactAudioCopy v0.99pb4
#
DISCID=1b02f103
DTITLE=Indelicates - Julia, We Don't Live in the '60s
DYEAR=2007
DGENRE=Indie Pop
TTITLE0=Julia, We Don't Live in the '60s
TTITLE1=Point Me To The West
TTITLE2=Unity Mitford (Live in Innsbruck)
EXTD=
EXTT0=
EXTT1=
EXTT2=
PLAYORDER=
